<?xml version="1.0" encoding="utf-8"?>
<!-- Generator: Adobe Illustrator 16.0.0, SVG Export Plug-In . SVG Version: 6.00 Build 0)  -->
<!DOCTYPE svg PUBLIC "-//W3C//DTD SVG 1.1//EN" "http://www.w3.org/Graphics/SVG/1.1/DTD/svg11.dtd">
<svg version="1.1" id="Layer_1" xmlns="http://www.w3.org/2000/svg" xmlns:xlink="http://www.w3.org/1999/xlink" x="0px" y="0px"
	 width="128px" height="128px" viewBox="0 0 128 128" enable-background="new 0 0 128 128" xml:space="preserve">
<g>
	<path d="M96.053,0.086L79.47,0.062c-18.663,0-30.712,12.362-30.712,31.5v14.525H32.07c-1.442,0-2.612,1.167-2.612,2.613v21.046
		c0,1.441,1.17,2.6,2.612,2.6h16.688v53.101c0,1.449,1.171,2.616,2.612,2.616h21.767c1.45,0,2.616-1.175,2.616-2.616V72.345H95.27
		c1.45,0,2.601-1.158,2.601-2.6l0.017-21.046c0-0.696-0.267-1.354-0.767-1.846s-1.15-0.767-1.851-0.767H75.753V33.774
		c0-5.921,1.417-8.921,9.117-8.921l11.183-0.004c1.434,0,2.617-1.171,2.617-2.613V2.699C98.67,1.262,97.486,0.095,96.053,0.086z"/>
</g>
</svg>
