<?xml version="1.0" encoding="utf-8"?>
<!-- Generator: Adobe Illustrator 16.0.0, SVG Export Plug-In . SVG Version: 6.00 Build 0)  -->
<!DOCTYPE svg PUBLIC "-//W3C//DTD SVG 1.1//EN" "http://www.w3.org/Graphics/SVG/1.1/DTD/svg11.dtd">
<svg version="1.1" id="Layer_1" xmlns="http://www.w3.org/2000/svg" xmlns:xlink="http://www.w3.org/1999/xlink" x="0px" y="0px"
	 width="128px" height="128px" viewBox="0 0 128 128" enable-background="new 0 0 128 128" xml:space="preserve">
<g>
	<path d="M127.981,24.348c-5.036,2.166-10.085,3.516-15.106,4.061c5.686-3.411,9.529-8.23,11.532-14.457
		c-5.197,3.086-10.747,5.198-16.648,6.335c-5.198-5.522-11.587-8.288-19.167-8.288c-7.256,0-13.441,2.559-18.568,7.679
		c-5.113,5.116-7.672,11.299-7.672,18.554c0,1.949,0.217,3.956,0.65,6.01c-10.721-0.538-20.778-3.232-30.172-8.081
		c-9.394-4.846-17.37-11.303-23.921-19.37c-2.382,4.061-3.574,8.474-3.574,13.238c0,4.494,1.056,8.663,3.171,12.511
		c2.112,3.841,4.954,6.954,8.528,9.336c-4.223-0.163-8.176-1.272-11.857-3.33v0.325c0,6.335,1.99,11.898,5.969,16.693
		c3.979,4.788,9.001,7.807,15.065,9.053c-2.274,0.596-4.579,0.893-6.903,0.893c-1.516,0-3.171-0.135-4.954-0.405
		c1.678,5.252,4.765,9.569,9.255,12.954c4.497,3.384,9.587,5.13,15.272,5.245c-9.529,7.465-20.385,11.2-32.568,11.2
		c-2.328,0-4.439-0.101-6.335-0.324c12.183,7.851,25.61,11.776,40.283,11.776c9.313,0,18.057-1.476,26.229-4.427
		c8.173-2.943,15.157-6.903,20.95-11.857c5.794-4.954,10.802-10.652,14.984-17.096c4.196-6.443,7.323-13.171,9.395-20.179
		c2.044-7.015,3.072-14.037,3.072-21.079c0-1.516-0.026-2.653-0.081-3.411C119.968,34.175,124.354,29.65,127.981,24.348z"/>
</g>
</svg>
