<?xml version="1.0" encoding="utf-8"?>
<!-- Generator: Adobe Illustrator 16.0.0, SVG Export Plug-In . SVG Version: 6.00 Build 0)  -->
<!DOCTYPE svg PUBLIC "-//W3C//DTD SVG 1.1//EN" "http://www.w3.org/Graphics/SVG/1.1/DTD/svg11.dtd">
<svg version="1.1" id="Layer_1" xmlns="http://www.w3.org/2000/svg" xmlns:xlink="http://www.w3.org/1999/xlink" x="0px" y="0px"
	 width="128px" height="128px" viewBox="0 0 128 128" enable-background="new 0 0 128 128" xml:space="preserve">
<g>
	<g>
		<g>
			<path d="M88,0H40C17.913,0,0,17.913,0,40v48c0,22.092,17.913,40,40,40h48c22.092,0,40-17.908,40-40V40C128,17.913,110.092,0,88,0
				z M116,88c0,15.441-12.559,28-28,28H40c-15.442,0-28-12.559-28-28V40c0-15.442,12.558-28,28-28h48c15.441,0,28,12.558,28,28V88z"
				/>
		</g>
	</g>
	<g>
		<g>
			<path d="M64,32c-17.671,0-32,14.329-32,32c0,17.675,14.329,32,32,32c17.675,0,32-14.325,32-32C96,46.329,81.675,32,64,32z M64,84
				c-11.025,0-20-8.975-20-20c0-11.033,8.975-20,20-20c11.025,0,20,8.967,20,20C84,75.025,75.025,84,64,84z"/>
		</g>
	</g>
	<g>
		<g>
			<circle cx="98.4" cy="29.6" r="4.262"/>
		</g>
	</g>
</g>
</svg>
