<?xml version="1.0" encoding="utf-8"?>
<!-- Generator: Adobe Illustrator 16.0.0, SVG Export Plug-In . SVG Version: 6.00 Build 0)  -->
<!DOCTYPE svg PUBLIC "-//W3C//DTD SVG 1.1//EN" "http://www.w3.org/Graphics/SVG/1.1/DTD/svg11.dtd">
<svg version="1.1" id="Layer_1" xmlns="http://www.w3.org/2000/svg" xmlns:xlink="http://www.w3.org/1999/xlink" x="0px" y="0px"
	 width="128px" height="128px" viewBox="0 0 128 128" enable-background="new 0 0 128 128" xml:space="preserve">
<g>
	<g>
		<path d="M100,47h-9.008V26.445C90.992,11.859,78.875,0,63.992,0c-14.891,0-27,11.859-27,26.445V47H28c-8.273,0-15,6.727-15,15v51
			c0,8.273,6.727,15,15,15h72c8.273,0,15-6.727,15-15V62C115,53.727,108.273,47,100,47z M46.992,26.445
			c0-9.07,7.625-16.445,17-16.445s17,7.375,17,16.445V47h-34V26.445L46.992,26.445z M105,113c0,2.758-2.242,5-5,5H28
			c-2.758,0-5-2.242-5-5V62c0-2.758,2.242-5,5-5h72c2.758,0,5,2.242,5,5V113z"/>
	</g>
</g>
<g>
	<g>
		<path d="M64,71.5c-5.109,0-9.25,4.141-9.25,9.25c0,3.266,1.688,6.125,4.242,7.773V99.5c0,2.766,2.234,5,5,5c2.758,0,5-2.234,5-5
			V88.539c2.563-1.648,4.258-4.523,4.258-7.789C73.25,75.641,69.109,71.5,64,71.5z"/>
	</g>
</g>
</svg>
