<?xml version="1.0" encoding="utf-8"?>
<!-- Generator: Adobe Illustrator 16.0.0, SVG Export Plug-In . SVG Version: 6.00 Build 0)  -->
<!DOCTYPE svg PUBLIC "-//W3C//DTD SVG 1.1//EN" "http://www.w3.org/Graphics/SVG/1.1/DTD/svg11.dtd">
<svg version="1.1" id="Layer_1" xmlns="http://www.w3.org/2000/svg" xmlns:xlink="http://www.w3.org/1999/xlink" x="0px" y="0px"
	 width="128px" height="128px" viewBox="0 0 128 128" enable-background="new 0 0 128 128" xml:space="preserve">
<g>
	<path d="M63.787,69.543h0.828h0.016c7.813-0.133,14.157-2.883,18.86-8.172c10.203-11.508,8.586-31.023,8.383-33.133
		c-0.68-14.313-7.438-21.109-12.984-24.281c-4.172-2.391-9-3.664-14.399-3.773h-0.273c-3.703,0-9.219,0.633-14.531,3.664
		c-5.625,3.188-12.469,10-13.141,24.266c-0.211,2.188-1.813,21.781,8.367,33.25C49.591,66.66,55.935,69.41,63.787,69.543z
		 M64.06,61.598c-5.688-0.055-10.016-1.852-13.227-5.5c-8.242-9.258-6.445-27.063-6.43-27.195l0.016-0.156
		C45.255,10.832,57.068,8.16,64.029,8.16h0.313c8.524,0.188,18.844,3.898,19.602,20.508l0.023,0.211
		c0.023,0.18,1.781,18.016-6.391,27.219c-3.234,3.648-7.578,5.445-13.25,5.5H64.06L64.06,61.598z"/>
	<path d="M118.725,101.59l-0.008-0.398c-0.016-0.094-0.016-0.203-0.016-0.352c-0.148-4.836-0.531-17.672-12.211-21.656l-0.117-0.031
		c-11.93-3.055-21.828-9.898-21.93-9.969c-0.617-0.438-1.375-0.672-2.195-0.672c-1.344,0-2.578,0.625-3.313,1.664
		c-0.609,0.867-0.844,1.922-0.656,2.969s0.766,1.953,1.625,2.563c0.438,0.305,10.875,7.609,24.117,11.031
		c5.898,2.133,6.57,8.266,6.758,14.398c0,0.219,0,0.406,0.016,0.578c0.031,2.391-0.109,5.805-0.5,7.906
		c-4.672,2.617-21.031,10.641-46.055,10.641c-24.883,0-41.367-8.039-46.086-10.672c-0.391-2.141-0.555-5.602-0.5-7.891
		c0-0.07,0-0.148,0.008-0.281l0.023-0.305c0.219-7.461,1.406-12.477,6.656-14.375c11.734-3.039,21.391-9.156,24.094-10.984
		c0.961-0.672,1.57-1.594,1.75-2.656c0.18-1.039-0.063-2.078-0.664-2.945c-0.75-1.063-1.969-1.695-3.258-1.695
		c-0.82,0-1.609,0.25-2.297,0.734c-0.094,0.063-9.867,6.875-21.703,9.875l-0.109,0.031c-11.859,4.07-12.242,16.891-12.391,21.766
		c0,0.211,0,0.406-0.023,0.602l-0.008,0.164c-0.023,0.836-0.109,8.305,1.375,12.031c0.297,0.789,0.828,1.43,1.5,1.844
		c0.188,0.133,19.305,12.68,51.664,12.68c30.797,0,49.571-11.352,51.625-12.648c0.711-0.461,1.258-1.125,1.539-1.875
		C118.834,109.957,118.74,102.457,118.725,101.59z"/>
</g>
</svg>
